<svg version="1.1" xmlns="http://www.w3.org/2000/svg" xmlns:xlink="http://www.w3.org/1999/xlink" width="348" height="54" viewBox="0 0 348 54">
<svg id="icon-2" width="31" height="32" viewBox="0 0 31 32" x="0" y="0" fill="grey">
<path d="M14.642 1.417c-2.94 0.295-5.432 1.299-7.616 3.082-3.59 2.917-5.503 6.837-5.514 11.265-0.012 3.436 1.016 6.412 3.106 8.974 2.917 3.59 6.837 5.503 11.265 5.514 4.7 0.012 8.844-2.078 11.714-5.928 3.047-4.074 3.649-9.694 1.547-14.394-1.216-2.704-3.531-5.231-6.223-6.742-2.397-1.358-5.597-2.043-8.277-1.771zM17.134 2.362c3.661 0.366 6.849 2.031 9.151 4.759 2.303 2.704 3.46 6.424 3.106 9.907-0.366 3.661-2.043 6.872-4.77 9.175-2.704 2.267-6.412 3.424-9.895 3.070-3.637-0.354-6.837-2.019-9.128-4.747-2.834-3.342-3.838-7.9-2.704-12.233 0.307-1.157 0.992-2.716 1.618-3.731 1.051-1.665 2.881-3.436 4.558-4.381 2.090-1.193 3.802-1.689 6.648-1.925 0.106 0 0.744 0.047 1.417 0.106z"></path>
<path d="M15.114 10.167c-0.732 0.106-1.582 0.378-1.972 0.649-0.248 0.153-0.272 0.26-0.272 1.169 0 0.555 0.035 1.004 0.071 1.004s0.224-0.106 0.401-0.236c0.649-0.461 1.346-0.709 2.043-0.709 1.11 0 1.488 0.307 1.5 1.216 0 0.945-0.331 1.358-2.22 2.799-1.582 1.204-2.267 2.373-2.267 3.838v0.768h6.967v-1.889h-2.184c-2.409 0-2.468-0.024-1.854-0.673 0.177-0.189 0.862-0.744 1.511-1.24 0.661-0.496 1.393-1.134 1.63-1.405 1.157-1.358 1.181-3.33 0.059-4.452-0.697-0.709-2.078-1.051-3.413-0.838z"></path>
</svg>
<svg id="icon-3" width="31" height="32" viewBox="0 0 31 32" x="36" y="0" fill="grey">
<path d="M14.642 1.417c-2.94 0.295-5.432 1.299-7.616 3.082-3.59 2.917-5.503 6.837-5.514 11.265-0.012 3.436 1.016 6.412 3.106 8.974 2.917 3.59 6.837 5.503 11.265 5.514 4.7 0.012 8.844-2.078 11.714-5.928 3.047-4.074 3.649-9.694 1.547-14.394-1.216-2.704-3.531-5.231-6.223-6.742-2.397-1.358-5.597-2.043-8.277-1.771zM17.134 2.362c3.661 0.366 6.849 2.031 9.151 4.759 2.303 2.704 3.46 6.424 3.106 9.907-0.366 3.661-2.043 6.872-4.77 9.175-2.704 2.267-6.412 3.424-9.895 3.070-3.637-0.354-6.837-2.019-9.128-4.747-2.834-3.342-3.838-7.9-2.704-12.233 0.307-1.157 0.992-2.716 1.618-3.731 1.051-1.665 2.881-3.436 4.558-4.381 2.090-1.193 3.802-1.689 6.648-1.925 0.106 0 0.744 0.047 1.417 0.106z"></path>
<path d="M14.76 10.273c-0.354 0.047-0.874 0.177-1.145 0.295l-0.508 0.201v0.933c0 0.508 0.035 0.933 0.083 0.933s0.307-0.106 0.59-0.248c0.709-0.342 1.771-0.425 2.255-0.177 0.449 0.236 0.614 0.508 0.614 1.039 0 0.85-0.661 1.275-2.007 1.275h-0.827v1.889h0.803c1.027 0 1.641 0.177 2.055 0.59 0.614 0.626 0.307 1.724-0.567 2.007-0.685 0.224-2.007 0.094-2.739-0.272l-0.614-0.307v2.102l0.685 0.213c0.921 0.283 3.058 0.283 3.79 0 1.665-0.638 2.527-2.255 2.031-3.779-0.177-0.52-1.027-1.322-1.535-1.441-0.437-0.094-0.472-0.248-0.071-0.342 0.496-0.13 1.181-0.909 1.334-1.523 0.083-0.295 0.142-0.661 0.142-0.815 0-0.874-0.602-1.807-1.429-2.232-0.39-0.189-1.807-0.484-2.173-0.437-0.059 0-0.413 0.047-0.768 0.094z"></path>
</svg>
<svg id="icon-ok" width="31" height="32" viewBox="0 0 31 32" x="72" y="0" fill="green">
<path d="M14.524 1.417c-5.538 0.567-10.12 4.038-12.103 9.199-1.134 2.928-1.24 6.731-0.272 9.694 1.606 4.936 5.739 8.632 10.852 9.694 2.279 0.472 5.266 0.319 7.427-0.39 4.936-1.606 8.632-5.739 9.694-10.852 0.472-2.279 0.319-5.266-0.39-7.427-1.606-4.912-5.798-8.667-10.793-9.671-1.393-0.272-3.2-0.378-4.416-0.248zM26.12 8.23c0.342 0.307 0.248 0.649-0.331 1.216-0.295 0.295-0.638 0.72-0.756 0.945s-1.275 1.452-2.562 2.739c-1.818 1.783-2.669 2.728-3.72 4.133-0.756 0.992-1.818 2.255-2.362 2.81-0.555 0.555-1.145 1.216-1.322 1.488-0.295 0.461-1.405 1.464-1.618 1.464-0.047 0-0.224-0.047-0.378-0.106-0.295-0.118-0.567-0.449-1.653-2.078-0.354-0.52-0.791-1.134-0.992-1.358-0.401-0.472-1.618-2.267-2.090-3.094-0.177-0.319-0.472-0.649-0.661-0.744-0.26-0.142-0.354-0.272-0.354-0.508 0-1.015 1.145-0.732 1.889 0.461 0.956 1.547 1.724 2.68 2.055 3.058 0.201 0.224 0.673 0.862 1.039 1.417 0.378 0.555 0.779 1.122 0.897 1.275l0.213 0.283 0.39-0.461c0.213-0.248 0.933-1.086 1.618-1.866s1.748-2.161 2.373-3.070c0.897-1.311 1.488-2.007 2.822-3.318 0.933-0.921 2.007-1.948 2.397-2.291 0.401-0.342 0.85-0.85 1.015-1.122 0.354-0.626 1.311-1.476 1.63-1.476 0.13 0 0.342 0.083 0.461 0.201z"></path>
</svg>
<svg id="icon-1" width="31" height="32" viewBox="0 0 31 32" x="108" y="0" fill="grey">
<path d="M14.642 1.417c-2.94 0.295-5.432 1.299-7.616 3.082-3.59 2.917-5.503 6.837-5.514 11.265-0.012 3.436 1.016 6.412 3.106 8.974 2.917 3.59 6.837 5.503 11.265 5.514 4.7 0.012 8.844-2.078 11.714-5.928 3.047-4.074 3.649-9.694 1.547-14.394-1.216-2.704-3.531-5.231-6.223-6.742-2.397-1.358-5.597-2.043-8.277-1.771zM17.134 2.362c3.661 0.366 6.849 2.031 9.151 4.759 2.303 2.704 3.46 6.424 3.106 9.907-0.366 3.661-2.043 6.872-4.77 9.175-2.704 2.267-6.412 3.424-9.895 3.070-3.637-0.354-6.837-2.019-9.128-4.747-2.834-3.342-3.838-7.9-2.704-12.233 0.307-1.157 0.992-2.716 1.618-3.731 1.051-1.665 2.881-3.436 4.558-4.381 2.090-1.193 3.802-1.689 6.648-1.925 0.106 0 0.744 0.047 1.417 0.106z"></path>
<path d="M14.996 10.958c-0.354 0.236-1.015 0.567-1.476 0.744l-0.827 0.319-0.071 2.055 0.39-0.083c0.213-0.035 0.697-0.224 1.075-0.401l0.673-0.331v7.876h2.362v-10.627l-0.732 0.012c-0.649 0-0.827 0.059-1.393 0.437z"></path>
</svg>
<svg id="icon-20" width="29" height="32" viewBox="0 0 29 32" x="144" y="0" fill="red">
<path d="M13.456 3.279c-7.124 0.712-12.449 6.536-12.461 13.625-0.011 4.466 1.956 8.413 5.563 11.104 3.426 2.567 8.266 3.37 12.325 2.047 5.676-1.854 9.51-7.090 9.521-13.037 0.011-4.466-1.956-8.413-5.563-11.104-2.578-1.934-6.219-2.951-9.385-2.635zM11.285 11.929c1.504 0.204 2.522 1.515 2.363 3.053-0.136 1.312-0.656 2.013-2.522 3.415-1.165 0.871-1.628 1.323-1.628 1.606 0 0.079 0.769 0.136 2.069 0.147l2.058 0.034v1.696h-6.558l-0.034-0.656c-0.068-1.323 0.611-2.499 2.092-3.652 1.21-0.927 1.832-1.504 2.024-1.866 0.192-0.384 0.204-1.334 0.011-1.583-0.531-0.69-2.103-0.577-3.234 0.237-0.181 0.113-0.351 0.192-0.396 0.147-0.034-0.034-0.068-0.464-0.068-0.95 0-0.871 0-0.882 0.373-1.097 0.645-0.396 2.081-0.724 2.736-0.633 0.124 0.011 0.452 0.057 0.712 0.102zM20.274 12.133c0.927 0.384 1.617 1.436 1.877 2.849 0.17 0.939 0.147 3.030-0.045 3.946-0.452 2.16-1.934 3.381-3.833 3.189-2.047-0.204-3.053-1.606-3.2-4.421-0.136-2.68 0.531-4.557 1.911-5.405 0.882-0.554 2.216-0.611 3.29-0.158z"></path>
<path d="M18.047 13.897c-0.475 0.486-0.667 1.413-0.678 3.121 0 2.273 0.418 3.336 1.334 3.336 0.498 0 0.893-0.441 1.097-1.266 0.237-0.893 0.204-3.596-0.045-4.41-0.328-1.074-1.085-1.425-1.707-0.78z"></path>
</svg>
<svg id="icon-user" width="18" height="18" viewBox="0 0 18 18" x="0" y="36" fill="grey">
<path d="M13.714 7.654l-0.001 0c0.182-0.519 0.286-1.073 0.286-1.654 0-2.761-2.238-5-5-5s-5 2.239-5 5c0 0.581 0.104 1.135 0.286 1.654v-0c-1.948 0.991-3.286 3.010-3.286 5.345v3c0 0.553 0.448 1.001 1.001 1.001h13.997c0.553 0 1.001-0.448 1.001-1.001v-3c0-2.336-1.337-4.354-3.286-5.345zM9 3c1.654 0 3 1.346 3 3s-1.346 3-3 3c-1.654 0-3-1.346-3-3s1.346-3 3-3zM15 15h-12v-2.001c0-1.604 0.952-2.987 2.318-3.624 0.914 0.997 2.223 1.625 3.682 1.625s2.768-0.628 3.682-1.625c1.366 0.636 2.318 2.020 2.318 3.624v2.001z"></path>
</svg>
</svg>